<mxfile host="app.diagrams.net" agent="Mozilla/5.0 (Windows NT 10.0; Win64; x64) AppleWebKit/537.36 (KHTML, like Gecko) Chrome/127.0.0.0 Safari/537.36 Edg/127.0.0.0" version="24.7.6">
  <diagram name="Page-1" id="sOLA_pNvpnlRUVK7hoNU">
    <mxGraphModel dx="2783" dy="2271" grid="1" gridSize="10" guides="1" tooltips="1" connect="1" arrows="1" fold="1" page="1" pageScale="1" pageWidth="827" pageHeight="1169" math="0" shadow="0">
      <root>
        <mxCell id="0" />
        <mxCell id="1" parent="0" />
        <mxCell id="uF6xusU7a7mh2p0aXsDx-1" value="&lt;h1 style=&quot;margin-top: 0px;&quot;&gt;&lt;span style=&quot;background-color: initial; font-size: 24px;&quot;&gt;State Transition Graph STG Controller:&lt;/span&gt;&lt;br&gt;&lt;/h1&gt;" style="text;html=1;whiteSpace=wrap;overflow=hidden;rounded=0;" vertex="1" parent="1">
          <mxGeometry x="-20" y="-580" width="320" height="120" as="geometry" />
        </mxCell>
        <mxCell id="uF6xusU7a7mh2p0aXsDx-2" value="&lt;b style=&quot;font-size: 25px;&quot;&gt;IDLE&lt;/b&gt;" style="ellipse;whiteSpace=wrap;html=1;aspect=fixed;strokeWidth=2;" vertex="1" parent="1">
          <mxGeometry x="284" y="-270" width="150" height="150" as="geometry" />
        </mxCell>
        <mxCell id="uF6xusU7a7mh2p0aXsDx-17" style="edgeStyle=orthogonalEdgeStyle;rounded=0;orthogonalLoop=1;jettySize=auto;html=1;exitX=0;exitY=1;exitDx=0;exitDy=0;curved=1;entryX=0.5;entryY=1;entryDx=0;entryDy=0;" edge="1" parent="1" source="uF6xusU7a7mh2p0aXsDx-3" target="uF6xusU7a7mh2p0aXsDx-3">
          <mxGeometry relative="1" as="geometry">
            <mxPoint x="449.99999999999955" y="310" as="targetPoint" />
            <Array as="points">
              <mxPoint x="370" y="278" />
              <mxPoint x="370" y="340" />
              <mxPoint x="445" y="340" />
            </Array>
          </mxGeometry>
        </mxCell>
        <mxCell id="uF6xusU7a7mh2p0aXsDx-19" style="edgeStyle=orthogonalEdgeStyle;rounded=0;orthogonalLoop=1;jettySize=auto;html=1;exitX=0;exitY=0.5;exitDx=0;exitDy=0;curved=1;" edge="1" parent="1" source="uF6xusU7a7mh2p0aXsDx-3">
          <mxGeometry relative="1" as="geometry">
            <mxPoint x="390" y="280" as="targetPoint" />
            <Array as="points">
              <mxPoint x="300" y="225" />
              <mxPoint x="300" y="320" />
              <mxPoint x="391" y="320" />
            </Array>
          </mxGeometry>
        </mxCell>
        <mxCell id="uF6xusU7a7mh2p0aXsDx-3" value="&lt;b style=&quot;font-size: 25px;&quot;&gt;PROCESS&lt;/b&gt;" style="ellipse;whiteSpace=wrap;html=1;aspect=fixed;strokeWidth=2;" vertex="1" parent="1">
          <mxGeometry x="370" y="150" width="150" height="150" as="geometry" />
        </mxCell>
        <mxCell id="uF6xusU7a7mh2p0aXsDx-6" value="" style="edgeStyle=none;orthogonalLoop=1;jettySize=auto;html=1;rounded=0;curved=1;" edge="1" parent="1" source="uF6xusU7a7mh2p0aXsDx-2" target="uF6xusU7a7mh2p0aXsDx-3">
          <mxGeometry width="80" relative="1" as="geometry">
            <mxPoint x="390" y="-90" as="sourcePoint" />
            <mxPoint x="470" y="-90" as="targetPoint" />
            <Array as="points">
              <mxPoint x="530" y="-80" />
              <mxPoint x="530" y="70" />
            </Array>
          </mxGeometry>
        </mxCell>
        <mxCell id="uF6xusU7a7mh2p0aXsDx-7" value="" style="edgeStyle=none;orthogonalLoop=1;jettySize=auto;html=1;rounded=0;exitX=0;exitY=0;exitDx=0;exitDy=0;entryX=0.24;entryY=0.95;entryDx=0;entryDy=0;entryPerimeter=0;curved=1;" edge="1" parent="1" source="uF6xusU7a7mh2p0aXsDx-3" target="uF6xusU7a7mh2p0aXsDx-2">
          <mxGeometry width="80" relative="1" as="geometry">
            <mxPoint x="310" y="20" as="sourcePoint" />
            <mxPoint x="390" y="20" as="targetPoint" />
            <Array as="points">
              <mxPoint x="170" y="60" />
            </Array>
          </mxGeometry>
        </mxCell>
        <mxCell id="uF6xusU7a7mh2p0aXsDx-9" value="" style="curved=1;endArrow=classic;html=1;rounded=0;entryX=1;entryY=0;entryDx=0;entryDy=0;" edge="1" parent="1" target="uF6xusU7a7mh2p0aXsDx-2">
          <mxGeometry width="50" height="50" relative="1" as="geometry">
            <mxPoint x="470" y="-380" as="sourcePoint" />
            <mxPoint x="450" y="-295" as="targetPoint" />
            <Array as="points">
              <mxPoint x="420" y="-350" />
              <mxPoint x="500" y="-295" />
            </Array>
          </mxGeometry>
        </mxCell>
        <mxCell id="uF6xusU7a7mh2p0aXsDx-10" value="&lt;font style=&quot;font-size: 15px;&quot;&gt;reset, !start&lt;/font&gt;" style="text;html=1;align=center;verticalAlign=middle;whiteSpace=wrap;rounded=0;" vertex="1" parent="1">
          <mxGeometry x="470" y="-390" width="100" height="30" as="geometry" />
        </mxCell>
        <mxCell id="uF6xusU7a7mh2p0aXsDx-11" value="&lt;font style=&quot;font-size: 30px;&quot;&gt;start / sel_a = 2&#39;bxx , enable&lt;/font&gt;" style="text;html=1;align=center;verticalAlign=middle;whiteSpace=wrap;rounded=0;" vertex="1" parent="1">
          <mxGeometry x="510" y="-120" width="410" height="60" as="geometry" />
        </mxCell>
        <mxCell id="uF6xusU7a7mh2p0aXsDx-12" style="edgeStyle=orthogonalEdgeStyle;rounded=0;orthogonalLoop=1;jettySize=auto;html=1;exitX=1;exitY=0.5;exitDx=0;exitDy=0;curved=1;" edge="1" parent="1" source="uF6xusU7a7mh2p0aXsDx-3" target="uF6xusU7a7mh2p0aXsDx-3">
          <mxGeometry relative="1" as="geometry">
            <Array as="points">
              <mxPoint x="520" y="210" />
              <mxPoint x="580" y="210" />
              <mxPoint x="580" y="320" />
              <mxPoint x="500" y="320" />
            </Array>
          </mxGeometry>
        </mxCell>
        <mxCell id="uF6xusU7a7mh2p0aXsDx-14" value="&lt;font style=&quot;font-size: 30px;&quot;&gt;start, operation =01 / sel_a = 2&#39;b01 , enable&lt;/font&gt;" style="text;html=1;align=center;verticalAlign=middle;whiteSpace=wrap;rounded=0;" vertex="1" parent="1">
          <mxGeometry x="590" y="250" width="580" height="60" as="geometry" />
        </mxCell>
        <mxCell id="uF6xusU7a7mh2p0aXsDx-15" value="&lt;font style=&quot;font-size: 30px;&quot;&gt;start, operation =10 / sel_a = 2&#39;b10 , enable&lt;/font&gt;" style="text;html=1;align=center;verticalAlign=middle;whiteSpace=wrap;rounded=0;rotation=0;" vertex="1" parent="1">
          <mxGeometry x="380" y="360" width="600" height="60" as="geometry" />
        </mxCell>
        <mxCell id="uF6xusU7a7mh2p0aXsDx-18" value="&lt;font style=&quot;font-size: 30px;&quot;&gt;start, operation =11 / sel_a = 2&#39;b11 , enable&lt;/font&gt;" style="text;html=1;align=center;verticalAlign=middle;whiteSpace=wrap;rounded=0;" vertex="1" parent="1">
          <mxGeometry x="-280" y="240" width="580" height="60" as="geometry" />
        </mxCell>
        <mxCell id="uF6xusU7a7mh2p0aXsDx-20" style="edgeStyle=orthogonalEdgeStyle;rounded=0;orthogonalLoop=1;jettySize=auto;html=1;exitX=0.5;exitY=0;exitDx=0;exitDy=0;entryX=1;entryY=0;entryDx=0;entryDy=0;curved=1;" edge="1" parent="1" source="uF6xusU7a7mh2p0aXsDx-3" target="uF6xusU7a7mh2p0aXsDx-3">
          <mxGeometry relative="1" as="geometry">
            <Array as="points">
              <mxPoint x="445" y="130" />
              <mxPoint x="520" y="130" />
              <mxPoint x="520" y="170" />
              <mxPoint x="510" y="170" />
              <mxPoint x="510" y="172" />
            </Array>
          </mxGeometry>
        </mxCell>
        <mxCell id="uF6xusU7a7mh2p0aXsDx-21" value="&lt;font style=&quot;font-size: 31px;&quot;&gt;start, operation =00 / sel_a = 2&#39;b00 , enable&lt;/font&gt;" style="text;html=1;align=center;verticalAlign=middle;whiteSpace=wrap;rounded=0;" vertex="1" parent="1">
          <mxGeometry x="540" y="120" width="610" height="60" as="geometry" />
        </mxCell>
        <mxCell id="uF6xusU7a7mh2p0aXsDx-23" value="&lt;font style=&quot;font-size: 30px;&quot;&gt;count16 / sel_a = 2&#39;bxx , ready&lt;/font&gt;" style="text;html=1;align=center;verticalAlign=middle;whiteSpace=wrap;rounded=0;" vertex="1" parent="1">
          <mxGeometry x="-170" y="-20" width="430" height="60" as="geometry" />
        </mxCell>
      </root>
    </mxGraphModel>
  </diagram>
</mxfile>
